#define rocks_icon_width 189
#define rocks_icon_height 38
static char rocks_icon_bits[] = {
 0x00,0x00,0x00,0x00,0x00,0x00,0x00,0x00,0x00,0x00,0x00,0x00,0x00,0x00,0x00,
 0x00,0x00,0x00,0x00,0x00,0x00,0x00,0x00,0xe0,0x00,0x00,0x00,0x00,0x00,0x00,
 0x00,0x00,0x00,0x00,0x00,0x00,0x00,0x00,0x00,0x00,0x00,0x00,0x00,0x00,0x00,
 0x00,0x00,0xe0,0x00,0x00,0x00,0x00,0x00,0x20,0x00,0x00,0x00,0x00,0x00,0x00,
 0x00,0x08,0x00,0x00,0x00,0x01,0x00,0x00,0x20,0x00,0x00,0xe0,0x00,0x00,0x00,
 0x00,0x00,0x30,0x00,0x00,0x00,0x00,0x00,0x00,0x00,0x14,0x00,0x00,0x80,0x02,
 0x00,0x00,0x50,0x00,0x00,0xe0,0x00,0x00,0x00,0x00,0x00,0x3c,0x00,0x00,0x00,
 0x00,0x00,0x00,0x00,0x36,0x00,0x00,0xc0,0x06,0x00,0x00,0xd8,0x00,0x00,0xe0,
 0x00,0x00,0x00,0x00,0x00,0x38,0x00,0x00,0x00,0x00,0x00,0x00,0x00,0x6b,0x00,
 0x00,0x60,0x0d,0x00,0x00,0xac,0x01,0x00,0xe0,0xbc,0x07,0x00,0x00,0x00,0x30,
 0x00,0x00,0x00,0x00,0x00,0x00,0x80,0xea,0x00,0x00,0x50,0x1d,0x00,0x00,0xaa,
 0x03,0x00,0xe0,0x78,0x0c,0xf0,0x00,0x3c,0x30,0x38,0x78,0x00,0x00,0x00,0x00,
 0x40,0xd5,0x01,0x00,0xa8,0x3a,0x00,0x00,0x55,0x07,0x00,0xe0,0x30,0x0c,0x9c,
 0x03,0xe7,0x30,0x18,0xc6,0x81,0x0f,0x00,0x00,0x20,0xd5,0x03,0x00,0xa4,0x7a,
 0x00,0x80,0x54,0x0f,0x00,0xe0,0x30,0x0c,0x06,0x86,0xc1,0x31,0x0e,0x83,0xc3,
 0x19,0x00,0x00,0x90,0xaa,0x07,0x00,0x52,0xf5,0x00,0x40,0xaa,0x1e,0x00,0xe0,
 0x30,0x0e,0x03,0xcc,0x40,0xf0,0x01,0x83,0xe0,0x30,0x00,0x00,0x88,0xaa,0x0f,
 0x00,0x51,0xf5,0x01,0x20,0xaa,0x3e,0x00,0xe0,0xb0,0x07,0x03,0xcc,0x00,0x30,
 0x06,0x1e,0xe0,0x30,0x00,0x00,0x44,0x55,0x1f,0x80,0xa8,0xea,0x03,0x10,0x55,
 0x7d,0x00,0xe0,0x70,0x00,0x03,0xcc,0x00,0x30,0x18,0xe0,0xe1,0x30,0x00,0x00,
 0x42,0x55,0x3f,0x40,0xa8,0xea,0x07,0x08,0x55,0xfd,0x00,0xe0,0xb0,0x00,0x06,
 0x86,0x81,0x30,0x30,0x02,0xe3,0x18,0x00,0x00,0xa1,0xaa,0x7e,0x20,0x54,0xd5,
 0x0f,0x84,0xaa,0xfa,0x01,0xe0,0x30,0x43,0x9c,0x03,0x47,0x30,0x30,0x87,0xe1,
 0x1c,0x00,0x80,0xff,0xff,0xff,0xf0,0xff,0xff,0x1f,0xfe,0xff,0xff,0x03,0xe0,
 0x30,0x3c,0xf0,0x00,0x3c,0x30,0x18,0xfc,0xc0,0xcf,0x1f,0x00,0x43,0x55,0x7f,
 0x60,0xa8,0xea,0x0f,0x0c,0x55,0xfd,0x01,0xe0,0x00,0x00,0x00,0x00,0x00,0x00,
 0x00,0x00,0xc0,0x03,0x07,0x00,0x8c,0xaa,0x1f,0x80,0x51,0xf5,0x03,0x30,0xaa,
 0x7e,0x00,0xe0,0x00,0x00,0x00,0x00,0x00,0x00,0x00,0x00,0xe0,0x03,0x03,0x00,
 0x30,0xd5,0x07,0x00,0xa6,0xfa,0x00,0xc0,0x54,0x1f,0x00,0xe0,0x00,0x00,0x00,
 0x00,0x00,0x00,0x00,0x00,0xb0,0x03,0x03,0x00,0xc0,0xff,0x01,0x00,0xf8,0x3f,
 0x00,0x00,0xff,0x07,0x00,0xe0,0x00,0x00,0x00,0x00,0x00,0x00,0x00,0x00,0x9c,
 0x87,0x01,0x00,0x00,0x00,0x00,0x00,0x00,0x00,0x00,0x00,0x00,0x00,0x00,0xe0,
 0x00,0x00,0x00,0x00,0x00,0x00,0x00,0x00,0x0e,0x8f,0x00,0x00,0x00,0x00,0x00,
 0x00,0x00,0x00,0x00,0x00,0x00,0x00,0x00,0xe0,0x00,0x78,0x00,0xe0,0x01,0x80,
 0x07,0x00,0x06,0xcf,0x00,0x20,0x00,0x00,0x00,0x00,0x00,0x00,0x00,0x00,0x00,
 0x00,0x00,0xe0,0x00,0xfe,0x01,0xf8,0x07,0xe0,0x1f,0x00,0x07,0x7e,0x00,0x30,
 0x00,0x00,0x00,0x00,0x00,0x00,0x00,0x00,0x00,0x40,0x00,0xe0,0x00,0xfd,0x03,
 0xf4,0x0f,0xd0,0x3f,0x00,0x07,0x3c,0x00,0x3c,0x80,0x00,0x00,0x00,0x00,0x00,
 0x00,0x00,0x00,0x60,0x00,0xe0,0x80,0xfe,0x07,0xfa,0x1f,0xe8,0x7f,0x00,0x07,
 0x7c,0x40,0x78,0x40,0x00,0x00,0x00,0x00,0x00,0x00,0x00,0x00,0x78,0x00,0xe0,
 0x80,0xfe,0x07,0xfa,0x1f,0xe8,0x7f,0x00,0x0f,0xf8,0x21,0x60,0x20,0x00,0x00,
 0x00,0x00,0x00,0x00,0x00,0x00,0x70,0x00,0xe0,0x40,0xff,0x0d,0xfd,0x37,0xf4,
 0xdf,0x00,0x1e,0xf6,0x3f,0xc0,0x00,0x00,0x00,0x00,0x00,0x00,0x00,0x00,0x00,
 0x60,0x00,0xe0,0x40,0xff,0x0b,0xfd,0x2f,0xf4,0xbf,0x00,0xfe,0xc3,0x1f,0x9e,
 0xf1,0xc0,0x8f,0xe7,0x38,0xc0,0x83,0xe7,0x00,0x67,0xf0,0xe0,0x40,0xff,0x0d,
 0xfd,0x37,0xf4,0xdf,0x00,0xf8,0x80,0x0f,0x23,0xe3,0x70,0x0c,0x97,0x65,0x70,
 0x0e,0x97,0xc1,0x69,0x8c,0xe3,0x40,0xff,0x0a,0xfd,0x2b,0xf4,0xaf,0x00,0x00,
 0x00,0x80,0x01,0xc3,0x18,0x0c,0x0e,0xc3,0x18,0x18,0x0e,0x63,0x78,0x06,0xe7,
 0x40,0xff,0x0d,0xfd,0x37,0xf4,0xdf,0x00,0x00,0x00,0x80,0x01,0xc6,0x0c,0x0c,
 0x06,0xc3,0x0c,0x30,0x06,0x33,0x68,0x06,0xe1,0x40,0xff,0x0a,0xfd,0x2b,0xf4,
 0xaf,0x00,0x00,0x00,0x80,0x01,0xc6,0x0c,0x0c,0x06,0xc3,0x0c,0x30,0x06,0x33,
 0x60,0x3c,0xe0,0x80,0x5e,0x05,0x7a,0x15,0xe8,0x55,0x00,0x00,0x00,0x80,0x01,
 0xc6,0x0c,0x0c,0x06,0xc3,0x0c,0x30,0x06,0x33,0x60,0xc0,0xe3,0x80,0xaf,0x06,
 0xbe,0x1a,0xf8,0x6a,0x00,0x00,0x00,0x00,0x03,0xc3,0x18,0x0c,0x06,0xc3,0x18,
 0x18,0x06,0x63,0x60,0x04,0xe6,0x00,0x57,0x03,0x5c,0x0d,0x70,0x35,0x00,0x00,
 0x00,0x00,0xce,0xc1,0x70,0x5c,0x86,0x61,0x70,0x0e,0x86,0xc1,0x71,0x0e,0xe3,
 0x00,0xfc,0x00,0xf0,0x03,0xc0,0x0f,0x00,0x00,0x00,0x00,0x78,0xc0,0xc0,0x37,
 0x86,0x61,0xc0,0x03,0x86,0x01,0x6f,0xf8,0xe1,0x00,0x00,0x00,0x00,0x00,0x00,
 0x00,0x00,0x00,0x00,0x00,0x00,0x00,0x00,0x00,0x00,0x00,0x00,0x00,0x00,0x00,
 0x00,0x00,0xe0,0x00,0x00,0x00,0x00,0x00,0x00,0x00,0x00,0x00,0x00,0x00,0x00,
 0x00,0x00,0x00,0x00,0x00,0x00,0x00,0x00,0x00,0x00,0x00,0xe0};
